<svg xmlns="http://www.w3.org/2000/svg" version="1.0" viewBox="0 0 200 200">
  <defs/>
        <path d="M136.8 2.7c.7.3 1.6.2 1.9-.1.4-.3-.2-.6-1.3-.5-1.1 0-1.4.3-.6.6z"/>
        <path d="M51 4.9c-.8.5-3.1 1.2-5 1.6-4 .8-14.6 5.9-17.2 8.3-1 .8-1.8 1.2-1.8.9C27 15 15.7 26.2 15.5 27c-.1.9-3.9 6.5-4.8 7.1-.5.3-.9 1-.9 1.5s-.5 2-1 3.4C4.6 49.5 4.6 49.9 4.3 99.4c-.2 26.9.1 48.3.6 49 .4.6 1.2 2.9 1.5 5.1.8 4.1 5.7 14.8 8.1 17.5.8.8 1.3 1.7 1.2 2-.1.3 2.4 2.9 5.5 5.7 3.1 2.8 5.3 5.5 5 6-.4.4-.3.5.2 0 .5-.4 1.6-.1 2.5.7 2.4 2.1 13.6 7.6 15.5 7.6 1 0 1.5.4 1.2.8-.3.5.8.7 2.3.4 1.6-.2 3.2.1 3.5.7.5.8 9.5 1.1 28.7 1.1h28l2.4-2.6c1.4-1.5 2.5-3.1 2.5-3.6s.6-.6 1.3-.2c.6.4.9.4.5-.1-.4-.4.5-1.9 2-3.3s2.7-2.8 2.7-3.1c0-1.4 3.3-5 3.9-4.3.4.4.6.2.4-.3-.4-1.3 3.7-6.6 4.6-6 .3.3.4.2.2-.1-.5-.6 3.2-6 7.3-10.6 2.3-2.6 2.6-2.7 4.3-1.2.9.9 1.5 2.2 1.1 2.8-.3.6-.3.8.2.4.7-.7 4 2.8 4 4.3 0 .3 1.2 1.7 2.7 3.1 1.5 1.4 2.4 2.9 2 3.3-.4.5-.2.5.4.2.7-.4 1.4-.1 1.7.6.2.6 2.5 3.7 5 6.8 2.5 3.1 4.4 5.9 4.2 6.3-.3.3-.2.4.1.2.3-.3 1.7.8 3.1 2.5 1.4 1.6 3.2 2.9 4 2.9 1.8 0 7-5.4 7.9-8.2.3-1 1-1.6 1.5-1.2.5.3.8.2.7-.3-.4-1.3 3.3-6.3 4.3-5.7.5.3.6-.2.3-1-.3-.9.6-2.3 2.5-3.7 1.7-1.2 2.8-2.6 2.5-3.1-.4-.5.2-1.9 1.3-3.1 1-1.2 2.9-3.7 4.2-5.6 2.3-3.3 2.3-3.5.6-4.8-1.1-.7-1.5-1.3-.9-1.3.5 0-.4-.9-1.9-1.9-1.6-1-2.9-2.2-3-2.7-.1-.5-.5-.8-.8-.7-.7.2-4.4-3.6-4.4-4.6 0-.3-.3-.5-.6-.4-.3.1-3.4-2.7-6.9-6.3-3.4-3.5-6.7-6.4-7.2-6.4s-.6-.5-.2-1.2c.4-.6.3-.8-.3-.5-1.1.7-4-2.1-3.9-3.8.1-1.8 4.3-6.5 5.1-5.7.5.4.5.2.2-.4-.8-1.3 6.6-9.7 7.7-8.7.4.4.5.1.2-.7-.7-1.9 1.9-5.4 3.3-4.6.5.4 1.3.1 1.7-.5.4-.8.3-.9-.4-.5-2.2 1.3-1.2-1.3 1-2.8 1.2-.9 1.9-1.6 1.5-1.6-.4 0 .1-.9 1-1.9.9-1.1 2.1-1.7 2.6-1.4.6.4.7.1.2-.6-.8-1.4 2.9-5.4 4.1-4.3.4.4.4.2.1-.4-.4-.7.2-2.3 1.4-3.7 1.9-2.5 2-3.8 1.7-19.9-.4-17.4-1.6-24.6-5.3-32.2-.8-1.6-1.2-3.4-.8-4 .3-.6.3-.8-.2-.4-.4.4-2.1-1.2-3.8-3.5-3.4-4.7-11.7-14-11.7-13 0 .4-1-.3-2.2-1.4C159 3.6 128.3.9 113.3 10.2c-1.8 1-3.8 1.6-4.4 1.2-.7-.4-.9-.3-.6.3.4.6-.7 1.6-2.3 2.3-1.7.7-3 1.7-3 2.2 0 .5-.5.6-1.2.2-.6-.4-.8-.3-.4.4 1 1.6-1.4 2.6-2.7 1.2-.9-1-.9-1.1.3-.5.9.5 1.2.4.7-.1s-1.2-.9-1.5-.9c-1.6 0-5.1-3.2-4.4-4 .4-.5.2-.5-.5-.1s-3.4-.5-6.1-1.9C79.6 6.6 69 4 60.3 4c-4.3 0-8.5.4-9.3.9zm28 4.2c6.8 2.6 14.7 7 18 10.2l2.5 2.3 6.5-4.7c3.6-2.6 9.9-6 14-7.6 6.4-2.4 9-2.7 18-2.8 11.7 0 17.4 1.5 27.5 7.1 6.9 3.8 17 13.8 20.9 20.7 5.7 10 6.7 14.8 7.3 34.3l.5 18.1-10.9 13.4c-6 7.4-13.5 16.6-16.6 20.6l-5.6 7.1 8.2 7.9c4.5 4.3 11.9 11.4 16.4 15.7l8.2 7.8-11.6 15.5c-6.3 8.6-11.7 16.2-12 17-.3.7-.9 1.3-1.4 1.1-.4-.2-6.5-7.5-13.6-16.2-7-8.7-13.7-17-14.9-18.4l-2-2.5-15.5 19.2-15.4 19.3-28.5-.4c-26.2-.4-29-.6-34.3-2.6-17.6-6.5-29.3-18.2-35.9-35.9-2.2-5.6-2.2-7.3-2.6-52.6-.3-52.2-.3-53.1 6.4-66.4C20.1 21.3 35.5 10 53 6.6c5.5-1 20.5.4 26 2.5z"/>
        <path d="M52 42.7c-4 2.1-6.3 4.2-8.5 7.8-3 4.8-3 5-3.3 20.7L39.9 87H83V72.2c0-14.2-.1-15.1-2.7-20.3-3.5-6.8-9.9-11-17.6-11.7-4.3-.3-6.2.1-10.7 2.5zm19 2c3.9 2.4 8 7.2 8 9.3 0 1 .5 2.2 1 2.5.6.4 1 6.3 1 14.5v13.9H61.4l-19.6-.1.3-14.7c.4-13.2.6-15 2.7-18.3 2.7-4.4 7.1-7.8 11.6-8.9 4.1-1 11.5-.1 14.6 1.8zM129.2 42.5c-10.1 5.1-12.2 10.4-12.2 30v14.3l10.8 10 10.8 10.1 10.8-10.1 10.8-10.1-.4-15.8c-.3-15.7-.3-15.8-3.3-20-7.2-10.3-17.4-13.4-27.3-8.4zm13.8.4c2.1.4 5.5 2.7 8.4 5.5 4 3.8 5.1 5.5 5.6 9.1.5 3 .3 4.5-.4 4.6-.6 0-.6.3.2.6.6.2 1.2 1.3 1.2 2.4 0 1-.6 1.9-1.2 2-1 0-1 .2 0 .6.6.2 1.2 1.3 1.2 2.4 0 1-.6 1.9-1.2 2-1 0-1 .2 0 .6.6.2 1.2 1.3 1.2 2.4 0 1-.6 1.9-1.2 1.9-.9 0-.8.4.2 1 1.2.7 1.2 1.3.4 2.7-.8 1.3-.8 2.3 0 3.5.8 1.3.7 2.1-.3 3-.8.8-1.1.8-.8.2.4-.7-3.4 2.9-8.4 8l-9 9.1-1.8-2.2c-1-1.2-2.1-1.9-2.5-1.6-.6.6-1-1.2-.7-3 .1-.5-.3-.6-.9-.2-1.1.7-10.7-8.3-10.2-9.7.1-.4-.1-.7-.5-.7-2.7.4-3-.8-3.2-14.9-.2-11.1.1-15.4 1.2-17.5.8-1.4 1.8-2.3 2.2-1.9.5.4.5.1 0-.7-.9-1.7 6.3-8.4 8.3-7.6.7.2 1 .1.7-.4-.5-.9 1.9-1.5 6.5-1.9.8-.1 3.1.2 5 .7zM40.1 136.8c.5 10.4 3.9 16.3 11.8 20.4 5 2.6 6.1 2.8 17.8 2.8h12.6l10.4-9.7c5.7-5.4 13.2-12.4 16.6-15.5l6.2-5.7-37.9-.1H39.8l.3 7.8zm69.4-4.8c-.4.6-1.1.8-1.6.5-.5-.4-.9-.2-.9.4 0 1.2-7 8.4-7 7.3 0-.4-.5.1-1.1 1.1-.6.9-1.5 1.5-2 1.1-.5-.3-.8-.1-.7.5.2.6-3.1 4.3-7.2 8.2l-7.5 7-13.2-.3c-12.9-.3-13.3-.4-17.5-3.4-2.8-2-4.3-3.8-4.2-5.1 0-1.2-.5-1.9-1.2-1.6-1.6.6-2.4-2.1-3.1-10l-.6-6.7h34.2c22.9 0 34 .3 33.6 1z"/>
</svg>
